<?xml version="1.0" encoding="UTF-8" standalone="no"?>
<svg xmlns="http://www.w3.org/2000/svg" version="1.1" viewBox="0 0 744.09448 1052.3622" width="24" height="24">
    <g>
        <path d="m 166.26893,993.59737 c -4.82698,-15.1637 -17.57308,-60.24188 -21.63619,-76.51909 -15.78008,-63.21647 -22.96972,-111.16499 -22.94733,-153.03818 0.0144,-26.9264 0.32958,-29.48351 7.6192,-61.81542 29.34325,-130.14715 36.26435,-213.53985 23.55961,-283.87082 -8.27779,-45.82423 -23.65172,-87.66221 -67.163413,-182.77567 -4.160159,-9.09381 -7.267461,-16.83067 -6.905115,-17.19302 1.396974,-1.39697 73.982038,53.78232 98.482868,74.86685 66.74302,57.43662 105.57494,115.46052 136.74021,204.32161 6.57675,18.75219 6.91377,19.60963 7.48364,19.03978 0.63399,-0.634 6.03274,-33.20684 7.7314,-46.64667 9.07331,-71.78795 0.94592,-124.9612 -28.51287,-186.54486 -18.33736,-38.3343 -52.74689,-91.13491 -97.64834,-149.83906 -6.43805,-8.4171 -11.2734,-15.30382 -10.74523,-15.30382 0.52817,0 6.86078,0.82404 14.07247,1.8312 74.7275,10.43615 136.45975,34.51847 187.10797,72.99253 13.28392,10.0909 39.75429,36.13881 51.42835,50.60756 38.28248,47.44704 65.81971,111.94497 79.94449,187.24672 9.21224,49.11204 12.94229,91.81068 14.13259,161.77829 0.46996,27.62503 1.18648,44.0038 1.91442,43.76115 1.56902,-0.52301 18.4015,-32.71535 26.82385,-51.30097 17.39204,-38.37908 26.46502,-69.16947 32.00904,-108.6271 2.277,-16.20562 2.5356,-23.72485 2.58835,-75.2586 0.0323,-31.48977 0.37701,-56.87611 0.76615,-56.41408 0.38915,0.46202 4.21336,5.43119 8.49823,11.04259 44.09358,57.74414 74.32382,122.60507 86.15267,184.84611 4.91884,25.88193 6.27129,40.12414 6.89589,72.61812 1.32391,68.87405 -8.0838,124.21868 -43.8668,258.06438 -11.6383,43.53284 -21.55115,82.96293 -26.5548,105.62635 -2.04054,9.24231 -3.99754,17.74943 -4.34891,18.90472 -0.60553,1.99099 -12.67172,2.10052 -231.41422,2.10052 l -230.77537,0 -1.43281,-4.50112 0,0 z"/>
    </g>
</svg>
